<?xml version="1.0" encoding="UTF-8"?>
<svg width="25px" height="25px" viewBox="0 0 25 25" version="1.1" xmlns="http://www.w3.org/2000/svg" xmlns:xlink="http://www.w3.org/1999/xlink">
    <!-- Generator: Sketch 54 (76480) - https://sketchapp.com -->
    <title>existing-customers-main-nav</title>
    <desc>Created with Sketch.</desc>
    <defs>
        <polygon id="path-1" points="0.000446151509 -0.0001 12.754 -0.0001 12.754 12.9289 0.000446151509 12.9289"></polygon>
    </defs>
    <g id="existing-customers-main-nav" stroke="none" stroke-width="1" fill="none" fill-rule="evenodd">
        <g id="Group-3" transform="translate(0.000000, 6.000000)">
            <mask id="mask-2" fill="white">
                <use xlink:href="#path-1"></use>
            </mask>
            <g id="Clip-2"></g>
            <path d="M3.1992,3.2331 C3.2532,4.9571 4.6532,6.3581 6.3772,6.3581 C8.1542,6.3581 9.5552,4.8491 9.5552,3.1261 C9.5552,1.4561 8.1002,-0.0529 6.3772,0.0011 C4.6532,0.0011 3.1992,1.5091 3.1992,3.2331 L3.1992,3.2331 Z M6.3772,12.9291 L2.6602,12.9291 C0.0752,12.9291 0.0212,12.9291 0.0212,11.7971 C-0.0318,11.1511 0.0212,10.5051 0.1292,9.8581 C0.2362,9.2661 0.4522,8.7271 0.7752,8.2431 C1.2062,7.5961 1.7992,7.3811 2.6602,7.2731 C3.5222,7.1111 4.4922,7.9731 5.0842,8.1351 C6.3232,8.4581 7.4542,8.2961 8.5862,7.7581 C8.8012,7.6501 9.3932,7.1651 10.2012,7.2731 C11.0102,7.3811 11.5482,7.6501 11.9792,8.2431 C12.3562,8.7811 12.5172,9.3201 12.6262,9.9121 C12.7332,10.5051 12.7872,11.0971 12.7332,11.6901 C12.7332,12.9291 12.7332,12.9291 10.2562,12.9291 L6.3772,12.9291 Z" id="Fill-1" fill="#2C2822" mask="url(#mask-2)"></path>
        </g>
    </g>
</svg>