<svg id="Layer_1" data-name="Layer 1" xmlns="http://www.w3.org/2000/svg" width="115" height="40" viewBox="0 0 115 40"><defs><style>.cls-1{fill:#a6a6a6;}.cls-2{fill:#fff;}</style></defs><g id="Layer_2" data-name="Layer 2"><g id="Layer_1-2" data-name="Layer 1-2"><path class="cls-1" d="M105.2,1.25H7.77a13.55,13.55,0,0,0-1.9.17,6.26,6.26,0,0,0-1.8.6A6.07,6.07,0,0,0,.82,6.49a11,11,0,0,0-.17,1.9c0,.29,0,.58,0,.88V31.21c0,.3,0,.58,0,.88A11,11,0,0,0,.82,34a6.1,6.1,0,0,0,.59,1.81,6.15,6.15,0,0,0,2.66,2.65,6.26,6.26,0,0,0,1.8.6,13.55,13.55,0,0,0,1.9.17h99.34a13.42,13.42,0,0,0,1.9-.17,6.42,6.42,0,0,0,1.81-.6,6.08,6.08,0,0,0,1.54-1.12,6.21,6.21,0,0,0,1.12-1.53,6.74,6.74,0,0,0,.59-1.81,13.55,13.55,0,0,0,.17-1.9c0-.3,0-.58,0-.88V9.27c0-.3,0-.59,0-.88a13.42,13.42,0,0,0-.17-1.9,6.74,6.74,0,0,0-.59-1.81A6.21,6.21,0,0,0,110.82,2,6.74,6.74,0,0,0,109,1.43a12.09,12.09,0,0,0-1.9-.17H105.2Z"/><path d="M8.65,38.4H7.79A11.65,11.65,0,0,1,6,38.23a5.53,5.53,0,0,1-1.58-.52,5.19,5.19,0,0,1-1.32-1,5,5,0,0,1-1-1.33,5.47,5.47,0,0,1-.52-1.57,11.88,11.88,0,0,1-.15-1.78c0-.2,0-.87,0-.87V9.27s0-.66,0-.85a10.6,10.6,0,0,1,.15-1.78,5.53,5.53,0,0,1,.52-1.58,5.23,5.23,0,0,1,2.29-2.3A5.55,5.55,0,0,1,6,2.25a11.89,11.89,0,0,1,1.78-.16H107.1a11.52,11.52,0,0,1,1.76.16,5.3,5.3,0,0,1,3.88,2.81,5.45,5.45,0,0,1,.51,1.57,11.91,11.91,0,0,1,.16,1.79c0,.27,0,.56,0,.85V31.2c0,.3,0,.59,0,.88a11.52,11.52,0,0,1-.16,1.76,5.51,5.51,0,0,1-.51,1.58,5.23,5.23,0,0,1-1,1.32,5,5,0,0,1-1.33,1,5.43,5.43,0,0,1-1.58.52,11.76,11.76,0,0,1-1.77.16H8.65Z"/><g id="_Group_" data-name=" Group "><g id="_Group_2" data-name=" Group 2"><g id="_Group_3" data-name=" Group 3"><path id="_Path_" data-name=" Path " class="cls-2" d="M24.15,20.52a4.7,4.7,0,0,1,2.24-3.94,4.83,4.83,0,0,0-3.79-2c-1.6-.16-3.14,1-4,1s-2.08-.94-3.43-.91A5,5,0,0,0,11,17.17c-1.83,3.18-.46,7.85,1.29,10.42.88,1.26,1.91,2.66,3.26,2.61s1.81-.84,3.4-.84,2,.84,3.41.81,2.3-1.26,3.15-2.53a10.44,10.44,0,0,0,1.44-2.94A4.53,4.53,0,0,1,24.15,20.52Z"/><path id="_Path_2" data-name=" Path 2" class="cls-2" d="M21.56,12.84a4.57,4.57,0,0,0,1.05-3.31,4.68,4.68,0,0,0-3,1.57,4.44,4.44,0,0,0-1.09,3.19A3.87,3.87,0,0,0,21.56,12.84Z"/></g></g><path class="cls-2" d="M40.8,27H36.3L35.22,30.2h-1.9l4.26-11.79h2L43.81,30.2H41.88Zm-4-1.47h3.56l-1.75-5.18h0Z"/><path class="cls-2" d="M53,25.91c0,2.67-1.43,4.38-3.59,4.38a2.91,2.91,0,0,1-2.71-1.5h0v4.26H44.91V21.61h1.71V23h0a3,3,0,0,1,2.74-1.52C51.57,21.52,53,23.24,53,25.91Zm-1.82,0c0-1.74-.9-2.89-2.27-2.89s-2.25,1.17-2.25,2.89.9,2.89,2.25,2.89S51.19,27.66,51.19,25.91Z"/><path class="cls-2" d="M62.47,25.91c0,2.67-1.43,4.38-3.59,4.38a2.88,2.88,0,0,1-2.7-1.5h0v4.26H54.37V21.61h1.71V23h0a3,3,0,0,1,2.74-1.52C61,21.52,62.47,23.24,62.47,25.91Zm-1.82,0c0-1.74-.9-2.89-2.27-2.89s-2.25,1.17-2.25,2.89.9,2.89,2.25,2.89S60.65,27.66,60.65,25.91Z"/><path class="cls-2" d="M68.72,26.92c.13,1.17,1.27,1.94,2.82,1.94S74.1,28.09,74.1,27s-.65-1.46-2.18-1.84l-1.52-.36c-2.17-.53-3.17-1.54-3.17-3.18,0-2,1.77-3.43,4.29-3.43s4.2,1.39,4.25,3.43H74c-.11-1.18-1.08-1.89-2.5-1.89s-2.39.72-2.39,1.77c0,.83.62,1.32,2.14,1.7l1.3.31C75,24.12,76,25.09,76,26.81,76,29,74.2,30.4,71.41,30.4c-2.62,0-4.38-1.35-4.5-3.48Z"/><path class="cls-2" d="M79.77,19.57v2H81.4V23H79.77v4.74c0,.74.33,1.08,1,1.08a3.9,3.9,0,0,0,.59,0v1.39a4.69,4.69,0,0,1-1,.08c-1.75,0-2.42-.65-2.42-2.32V23H76.75V21.61H78v-2Z"/><path class="cls-2" d="M82.35,25.91c0-2.71,1.59-4.41,4.08-4.41s4.08,1.7,4.08,4.41-1.58,4.4-4.08,4.4S82.35,28.62,82.35,25.91Zm6.36,0c0-1.86-.85-2.95-2.28-2.95s-2.28,1.1-2.28,2.95.85,2.95,2.28,2.95S88.71,27.77,88.71,25.91Z"/><path class="cls-2" d="M92,21.61h1.68v1.46h0a2.05,2.05,0,0,1,2.07-1.55,3.08,3.08,0,0,1,.61.06v1.65a2.7,2.7,0,0,0-.8-.1,1.76,1.76,0,0,0-1.84,1.7.89.89,0,0,0,0,.28V30.2H92Z"/><path class="cls-2" d="M104.49,27.68c-.24,1.56-1.76,2.63-3.7,2.63-2.5,0-4.05-1.67-4.05-4.36s1.56-4.45,4-4.45,3.87,1.64,3.87,4.24v.61H98.52v.1a2.24,2.24,0,0,0,2,2.43h.28a1.94,1.94,0,0,0,2-1.21Zm-6-2.57h4.29a2.06,2.06,0,0,0-1.94-2.18h-.16a2.16,2.16,0,0,0-2.19,2.16v0Z"/></g><g id="_Group_4" data-name=" Group 4"><path class="cls-2" d="M36.55,9.54a2.51,2.51,0,0,1,2.68,2.32,2.68,2.68,0,0,1,0,.49c0,1.81-1,2.85-2.66,2.85h-2V9.54ZM35.38,14.4h1.07a1.77,1.77,0,0,0,1.88-1.67,1.54,1.54,0,0,0,0-.37,1.79,1.79,0,0,0-1.53-2,1.93,1.93,0,0,0-.34,0H35.38Z"/><path class="cls-2" d="M40.21,13.06a2,2,0,1,1,4-.38,2.41,2.41,0,0,1,0,.38,2,2,0,0,1-4,.39A2.54,2.54,0,0,1,40.21,13.06Zm3.16,0c0-.92-.41-1.46-1.14-1.46s-1.15.54-1.15,1.46.41,1.48,1.15,1.48S43.37,14,43.37,13.06Z"/><path class="cls-2" d="M49.6,15.2h-.87l-.89-3.15h-.06L46.9,15.2H46l-1.18-4.27h.86l.76,3.26h.06l.88-3.26h.81l.88,3.26h.07l.76-3.26h.84Z"/><path class="cls-2" d="M51.77,10.93h.81v.68h.06a1.27,1.27,0,0,1,1.28-.76,1.39,1.39,0,0,1,1.49,1.28,1.63,1.63,0,0,1,0,.31V15.2h-.85V12.65c0-.69-.3-1-.92-1a1,1,0,0,0-1,.93.76.76,0,0,0,0,.15v2.5h-.84Z"/><path class="cls-2" d="M56.74,9.26h.85V15.2h-.85Z"/><path class="cls-2" d="M58.76,13.06a2,2,0,0,1,4-.38,2.41,2.41,0,0,1,0,.38,2,2,0,1,1-4,.4A2.67,2.67,0,0,1,58.76,13.06Zm3.16,0c0-.92-.41-1.46-1.14-1.46s-1.15.54-1.15,1.46.41,1.48,1.15,1.48,1.14-.55,1.14-1.48Z"/><path class="cls-2" d="M63.68,14c0-.77.57-1.21,1.59-1.27l1.16-.07v-.37c0-.45-.3-.7-.88-.7s-.79.17-.89.47h-.82c.09-.73.78-1.2,1.75-1.2s1.68.53,1.68,1.43V15.2h-.81v-.6h-.07a1.43,1.43,0,0,1-1.29.67,1.28,1.28,0,0,1-1.41-1.15A.53.53,0,0,1,63.68,14Zm2.75-.36v-.36l-1.05.07c-.59,0-.85.24-.85.62s.33.6.79.6a1,1,0,0,0,1.11-.9Z"/><path class="cls-2" d="M68.38,13.06c0-1.35.69-2.2,1.77-2.2a1.38,1.38,0,0,1,1.31.75h.07V9.26h.84V15.2h-.81v-.67h-.07a1.47,1.47,0,0,1-1.34.74C69.06,15.27,68.38,14.42,68.38,13.06Zm.87,0c0,.91.43,1.46,1.14,1.46s1.15-.56,1.15-1.45-.44-1.45-1.15-1.45-1.14.54-1.14,1.44Z"/><path class="cls-2" d="M75.86,13.06a2,2,0,1,1,4-.38,1.21,1.21,0,0,1,0,.38,2,2,0,1,1-4,.39A2.54,2.54,0,0,1,75.86,13.06Zm3.17,0c0-.92-.42-1.46-1.15-1.46s-1.15.54-1.15,1.46.42,1.48,1.15,1.48S79,14,79,13.06Z"/><path class="cls-2" d="M81,10.93h.81v.68h.06a1.27,1.27,0,0,1,1.28-.76,1.39,1.39,0,0,1,1.49,1.28,1.63,1.63,0,0,1,0,.31V15.2h-.85V12.65c0-.69-.3-1-.92-1a1,1,0,0,0-1,.93.76.76,0,0,0,0,.15v2.5H81Z"/><path class="cls-2" d="M89.42,9.86V11h.93v.71h-.93v2.2c0,.44.19.64.61.64l.32,0v.7a2.31,2.31,0,0,1-.46.05c-.94,0-1.31-.33-1.31-1.16V11.66H87.9V11h.68V9.86Z"/><path class="cls-2" d="M91.5,9.26h.84v2.36h.07a1.3,1.3,0,0,1,1.3-.77,1.4,1.4,0,0,1,1.48,1.33,1.11,1.11,0,0,1,0,.26V15.2h-.84V12.65c0-.68-.32-1-.92-1a1,1,0,0,0-1.07.92.48.48,0,0,0,0,.17V15.2H91.5Z"/><path class="cls-2" d="M100.1,14.05a1.72,1.72,0,0,1-1.85,1.24,2,2,0,0,1-2-1.89,1.69,1.69,0,0,1,0-.32A2,2,0,0,1,98,10.86a1.29,1.29,0,0,1,.28,0c1.19,0,1.9.81,1.9,2.15v.3h-3v0a1.13,1.13,0,0,0,1,1.22h.1a1,1,0,0,0,1-.52Zm-3-1.38h2.16a1,1,0,0,0-1-1.1h-.1a1.11,1.11,0,0,0-1.11,1.08Z"/></g></g></g></svg>